<svg width="406" height="455" viewBox="0 0 406 455" fill="none" xmlns="http://www.w3.org/2000/svg">
<path d="M174.597 7.08265L245.308 77.7933L209.953 113.149L139.242 42.438L174.597 7.08265Z" fill="#1976D2"/>
<path d="M176.854 44.6947C167.091 54.4578 150.757 53.9526 140.37 43.5664C129.984 33.1801 129.479 16.8458 139.242 7.08265C149.005 -2.68045 165.339 -2.17527 175.726 8.21102C186.112 18.5973 186.617 34.9316 176.854 44.6947Z" fill="#1976D2"/>
<path d="M246.151 113.991C236.387 123.754 220.053 123.249 209.667 112.863C199.281 102.477 198.775 86.1422 208.538 76.3791C218.302 66.616 234.636 67.1212 245.022 77.5075C255.408 87.8938 255.914 104.228 246.151 113.991Z" fill="#1976D2"/>
<path d="M196.518 340.13L267.228 410.841L231.873 446.196L161.162 375.485L196.518 340.13Z" fill="#1976D2"/>
<path d="M198.774 377.742C189.011 387.505 172.677 387 162.291 376.614C151.904 366.227 151.399 349.893 161.162 340.13C170.925 330.367 187.26 330.872 197.646 341.258C208.032 351.645 208.538 367.979 198.774 377.742Z" fill="#1976D2"/>
<path d="M268.071 447.039C258.308 456.802 241.973 456.296 231.587 445.91C221.201 435.524 220.696 419.19 230.459 409.426C240.222 399.663 256.556 400.169 266.943 410.555C277.329 420.941 277.834 437.275 268.071 447.039Z" fill="#1976D2"/>
<path d="M99.644 9.91108L241.065 151.332L205.71 186.688L64.2887 45.2664L99.644 9.91108Z" fill="#1976D2"/>
<path d="M100.487 46.1089C90.7234 55.872 74.3891 55.3669 64.0028 44.9806C53.6166 34.5943 53.1114 18.26 62.8745 8.49687C72.6376 -1.26624 88.9719 -0.761055 99.3582 9.62523C109.744 20.0115 110.25 36.3458 100.487 46.1089Z" fill="#1976D2"/>
<path d="M241.908 187.53C232.145 197.293 215.811 196.788 205.424 186.402C195.038 176.016 194.533 159.681 204.296 149.918C214.059 140.155 230.393 140.66 240.78 151.047C251.166 161.433 251.671 177.767 241.908 187.53Z" fill="#1976D2"/>
<path d="M200.76 266.591L342.182 408.012L306.826 443.368L165.405 301.946L200.76 266.591Z" fill="#1976D2"/>
<path d="M201.603 302.789C191.84 312.552 175.505 312.047 165.119 301.66C154.733 291.274 154.228 274.94 163.991 265.177C173.754 255.414 190.088 255.919 200.474 266.305C210.861 276.691 211.366 293.026 201.603 302.789Z" fill="#1976D2"/>
<path d="M343.024 444.21C333.261 453.973 316.927 453.468 306.54 443.082C296.154 432.695 295.649 416.361 305.412 406.598C315.175 396.835 331.51 397.34 341.896 407.726C352.282 418.113 352.787 434.447 343.024 444.21Z" fill="#1976D2"/>
<path d="M43.7826 31.8314L397.336 385.385L361.981 420.74L8.42726 67.1867L43.7826 31.8314Z" fill="#1976D2"/>
<path d="M44.6251 68.0292C34.862 77.7924 18.5277 77.2872 8.14141 66.9009C-2.24488 56.5146 -2.75007 40.1803 7.01304 30.4172C16.7761 20.6541 33.1105 21.1593 43.4967 31.5455C53.883 41.9318 54.3882 58.2661 44.6251 68.0292Z" fill="#1976D2"/>
<path d="M398.179 421.583C388.415 431.346 372.081 430.841 361.695 420.454C351.309 410.068 350.803 393.734 360.566 383.971C370.33 374.207 386.664 374.713 397.05 385.099C407.436 395.485 407.942 411.82 398.179 421.583Z" fill="#1976D2"/>
</svg>
